<?xml version="1.0" standalone="no"?>
<!DOCTYPE svg PUBLIC "-//W3C//DTD SVG 20010904//EN"
 "http://www.w3.org/TR/2001/REC-SVG-20010904/DTD/svg10.dtd">
<svg version="1.0" xmlns="http://www.w3.org/2000/svg"
 width="1085.000000pt" height="1085.000000pt" viewBox="0 0 1085.000000 1085.000000"
 preserveAspectRatio="xMidYMid meet">
<metadata>
Created by potrace 1.14, written by Peter Selinger 2001-2017
</metadata>
<g transform="translate(0.000000,1085.000000) scale(0.100000,-0.100000)"
fill="#000000" stroke="none">
<path d="M70 9490 c0 -144 3 -192 13 -195 6 -2 102 -16 212 -29 235 -30 370
-62 480 -115 249 -120 357 -324 407 -776 19 -177 19 -5713 0 -5890 -62 -560
-224 -783 -627 -864 -81 -16 -476 -61 -539 -61 -14 0 -16 -22 -16 -195 l0
-195 1580 0 1580 0 0 195 c0 155 -3 195 -13 195 -59 0 -500 43 -567 56 -235
43 -402 146 -498 306 -71 120 -123 312 -153 573 -15 119 -24 6450 -10 6425 4
-8 649 -1755 1432 -3882 l1424 -3868 281 0 281 0 1228 2983 c675 1640 1379
3350 1564 3799 l336 817 3 -3052 c2 -2110 -1 -3093 -8 -3186 -21 -263 -68
-460 -141 -588 -43 -77 -159 -190 -234 -229 -126 -66 -264 -100 -552 -135
l-183 -22 0 -194 0 -193 1750 0 1750 0 0 195 c0 150 -3 195 -13 195 -38 0
-412 51 -467 64 -93 22 -202 60 -263 93 -68 37 -185 153 -226 226 -73 128
-120 325 -141 588 -8 93 -10 999 -8 2984 l3 2850 22 133 c46 279 102 411 223
533 134 135 283 188 646 234 109 14 205 25 211 25 10 0 13 45 13 195 l0 195
-1426 -2 -1426 -3 -1302 -3207 c-716 -1764 -1304 -3209 -1307 -3212 -2 -2
-472 1250 -1043 2782 -572 1533 -1111 2979 -1199 3215 l-160 427 -1458 0
-1459 0 0 -190z"/>
</g>
</svg>
